<?xml version="1.0" encoding="UTF-8"?>
<svg width="174px" height="22px" viewBox="0 0 174 22" version="1.1" xmlns="http://www.w3.org/2000/svg" xmlns:xlink="http://www.w3.org/1999/xlink">
    <!-- Generator: Sketch 55 (78076) - https://sketchapp.com -->
    <title>编组 13</title>
    <desc>Created with Sketch.</desc>
    <g id="页面1" stroke="none" stroke-width="1" fill="none" fill-rule="evenodd">
        <g id="编组-13" transform="translate(-0.000000, -2.000000)" fill="#5AB6B1">
            <text id="天津宠物管理系统" font-family="PingFangSC-Semibold, PingFang SC" font-size="18" font-weight="500">
                <tspan x="30" y="19">天津宠物管理系统</tspan>
            </text>
            <g id="2" transform="translate(0.000000, 2.000000)" fill-rule="nonzero">
                <path d="M18.2168362,0 C18.2168362,0 18.5768674,0.833007355 18.6601952,1.75199948 C18.7435229,2.67106679 18.6880759,3.47527889 18.5492768,3.47527889 C18.4107921,3.47527889 16.4155196,3.18805313 16.0273176,3.30300858 C15.6402762,3.4177385 14.5867576,5.57184403 14.3647759,5.6867243 C14.1432536,5.80160459 12.6468596,5.74411431 11.6768865,5.45698879 C10.7070584,5.16983822 10.2635544,4.99741755 10.2635544,4.99741755 C10.2635544,4.99741755 9.70934961,6.49108677 10.2082524,8.78859216 C10.7070584,11.0862229 11.9816882,12.00524 12.9789618,11.947825 C13.9770333,11.890435 14.7808587,12.005215 14.9469339,12.9817726 C15.1132993,13.958255 14.697676,16.5431114 13.6444234,18.6109314 C12.5914126,20.6787515 11.870915,22 11.870915,22 C11.870915,22 17.1916094,19.7597593 20.7940974,14.6474364 C24.3963195,9.53533906 23.6207859,2.81469221 18.2168362,0 Z" id="路径"></path>
                <path d="M8.8649364,9.0399507 C8.8649364,9.0399507 8.66780032,9.09616075 7.87979632,9.06810469 C7.09179231,9.0399507 6.33193309,8.84358274 6.24752338,8.7314564 C6.16296632,8.61915869 6.275619,8.14227907 5.88164157,7.7774768 C5.48759045,7.41282142 4.417967,7.24438713 4.417967,7.24438713 C4.417967,7.24438713 4.50245037,6.71137088 4.75575315,6.20633727 C5.00912962,5.70123022 5.54383084,5 5.54383084,5 C2.72928176,5.47687962 -0.816981803,7.3285798 0.168109149,11.7334062 C1.15310189,16.1383795 6.24749885,19 6.24749885,19 C6.24749885,19 5.62824058,17.9059604 5.1778754,16.7276303 C4.72751021,15.5491532 4.44603812,14.1744551 4.89647698,13.7816457 C5.34676849,13.3886894 7.65463831,12.8556732 8.49905461,11.8457039 C9.34347091,10.8355877 8.8649364,9.0399507 8.8649364,9.0399507 Z" id="路径"></path>
            </g>
        </g>
    </g>
</svg>